<svg width="25" height="25" viewBox="0 0 25 25" fill="none" xmlns="http://www.w3.org/2000/svg">
<g id="Group">
<path id="Vector" d="M18.2452 6.37097C17.6695 4.60641 18.0734 2.70798 18.6928 0.958223C18.765 0.754351 18.7419 0.527001 18.6264 0.341097C18.4952 0.129127 18.2642 0 18.0151 0H6.52637C6.27722 0 6.04628 0.129127 5.91504 0.341097C5.78381 0.553066 5.77188 0.817645 5.88347 1.04016C6.6808 2.6341 6.845 4.5033 6.35163 6.19973C5.87647 7.69889 5.18091 9.06544 4.50787 10.3863C4.30064 10.7929 4.09763 11.1935 3.9021 11.5926L7.14058 13.212C10.3074 14.7954 14.2237 14.7954 17.3905 13.212L20.637 11.5889C20.444 11.1961 20.2435 10.8021 20.0393 10.4025C19.3896 9.13252 18.7172 7.81786 18.2452 6.37097ZM12.2655 12.9846C11.8685 12.9846 11.5468 12.6628 11.5468 12.2659C11.5468 11.8689 11.8685 11.5472 12.2655 11.5472C12.6624 11.5472 12.9842 11.8689 12.9842 12.2659C12.9842 12.6628 12.6624 12.9846 12.2655 12.9846Z" fill="white"/>
<path id="Vector_2" d="M0.718704 5.79737H1.90643L1.69585 6.00795C1.41513 6.28868 1.41513 6.74352 1.69585 7.02424C1.97658 7.30497 2.43142 7.30497 2.71215 7.02424L4.14956 5.58684C4.43028 5.30611 4.43028 4.85127 4.14956 4.57054L2.71215 3.13314C2.43142 2.85241 1.97658 2.85241 1.69585 3.13314C1.41513 3.41386 1.41513 3.86871 1.69585 4.14943L1.90643 4.35996H0.718704C0.321452 4.35996 0 4.68142 0 5.07867C0 5.47592 0.321452 5.79737 0.718704 5.79737Z" fill="white"/>
<path id="Vector_3" d="M23.8125 4.36001H22.6248L22.8354 4.14943C23.1161 3.86871 23.1161 3.41386 22.8354 3.13314C22.5547 2.85241 22.0998 2.85241 21.8191 3.13314L20.3817 4.57054C20.101 4.85127 20.101 5.30611 20.3817 5.58684L21.8191 7.02425C22.0998 7.30497 22.5547 7.30497 22.8354 7.02425C23.1161 6.74352 23.1161 6.28868 22.8354 6.00795L22.6248 5.79742H23.8125C24.2098 5.79742 24.5312 5.47597 24.5312 5.07871C24.5312 4.68146 24.2098 4.36001 23.8125 4.36001Z" fill="white"/>
<path id="Vector_4" d="M21.2349 12.8971L18.0337 14.4976C16.2517 15.3883 14.2578 15.8592 12.2659 15.8592C10.274 15.8592 8.28007 15.3883 6.49802 14.4976L3.30597 12.9015C3.00996 13.6003 2.75247 14.307 2.57605 15.0486C2.39005 15.8299 2.27056 16.6202 2.20142 17.4134C5.60956 16.6693 8.6101 17.6551 11.3366 20.382C11.6202 20.6115 12.9123 20.6122 13.2001 20.3771C15.1215 18.4547 17.9644 16.4343 22.3411 17.42C22.272 16.6246 22.1528 15.8319 21.9663 15.0485C21.7886 14.3016 21.5308 13.5943 21.2349 12.8971Z" fill="white"/>
<path id="Vector_5" d="M14.2115 21.3986C14.0828 21.5273 13.9021 21.627 13.7034 21.7133V23.8132C13.7034 24.2101 14.0252 24.5319 14.4221 24.5319H20.8904C21.194 24.5319 21.4723 24.3388 21.5685 24.0508C22.1197 22.4006 22.3695 20.6359 22.3785 18.9147C18.5125 17.9163 16.0316 19.5785 14.2115 21.3986Z" fill="white"/>
<path id="Vector_6" d="M2.16455 18.897C2.17164 20.6241 2.42098 22.395 2.97415 24.0509C3.07036 24.3389 3.34854 24.532 3.65222 24.532H10.11C10.5069 24.532 10.8287 24.2102 10.8287 23.8133V21.7134C10.63 21.627 10.4493 21.5274 10.3206 21.3987C8.46461 19.5427 5.98115 17.9191 2.16455 18.897Z" fill="white"/>
</g>
</svg>
