<svg width="27" height="31" viewBox="0 0 27 31" fill="none" xmlns="http://www.w3.org/2000/svg">
<g id="Group ">
<path id="Vector" d="M24.5904 2.1705C21.9891 -0.252884 19.0444 -0.249578 16.8433 0.294203C14.6504 0.835837 12.3496 0.835837 10.1568 0.294203C7.95568 -0.249578 5.01098 -0.252884 2.40947 2.1705C-2.51965 6.76223 1.44677 14.9646 2.64057 16.3774C3.83437 17.7903 3.87281 19.674 4.72004 23.5201C5.56726 27.3663 6.64543 31.0161 8.80193 30.4667C10.9584 29.9173 11.5361 27.2486 12.0752 23.6772C12.1123 23.4315 12.1509 23.2011 12.1908 22.9846C12.4649 21.4997 14.535 21.4997 14.8091 22.9846C14.8489 23.201 14.8877 23.4315 14.9248 23.6772C15.4639 27.2486 16.0416 29.9173 18.1981 30.4667C20.3546 31.0161 21.4328 27.3663 22.28 23.5201C23.1272 19.674 23.1657 17.7903 24.3595 16.3774C25.5533 14.9646 29.5197 6.76223 24.5904 2.1705ZM9.53498 3.9544C9.4753 4.40562 9.06871 4.72264 8.62629 4.6638C8.46784 4.6438 4.95244 4.24827 3.96477 8.15954C3.87054 8.53242 3.54115 8.78018 3.17998 8.78018C3.113 8.78018 3.04505 8.77175 2.97726 8.75389C2.54359 8.64018 2.28248 8.18962 2.39406 7.74765C3.47628 3.46186 7.08315 2.78502 8.83923 3.02518C9.28311 3.086 9.5945 3.50202 9.53498 3.9544Z" fill="white"/>
</g>
</svg>
