<svg width="37" height="22" viewBox="0 0 37 22" fill="none" xmlns="http://www.w3.org/2000/svg">
<g id="Group">
<path id="Vector" d="M18.1265 0C11.2 0 4.91864 3.7673 0.283661 9.88641C-0.0945535 10.3877 -0.0945535 11.0881 0.283661 11.5894C4.91864 17.7159 11.2 21.4832 18.1265 21.4832C25.053 21.4832 31.3343 17.7159 35.9693 11.5968C36.3475 11.0955 36.3475 10.3951 35.9693 9.89378C31.3343 3.76731 25.053 0 18.1265 0ZM18.6233 18.3057C14.0254 18.5932 10.2285 14.8259 10.5177 10.2477C10.755 6.47298 13.8326 3.41343 17.6296 3.17751C22.2275 2.88999 26.0245 6.65729 25.7352 11.2356C25.4905 15.0029 22.4129 18.0624 18.6233 18.3057ZM18.3934 14.8112C15.9165 14.966 13.8697 12.9386 14.0329 10.4762C14.1589 8.44142 15.8201 6.79737 17.8669 6.66466C20.3438 6.50984 22.3906 8.53726 22.2275 10.9996C22.094 13.0418 20.4328 14.6859 18.3934 14.8112Z" fill="white"/>
</g>
</svg>
