<svg width="19" height="19" viewBox="0 0 19 19" fill="none" xmlns="http://www.w3.org/2000/svg">
<g id="Group">
<g id="Group ">
<path id="Vector" d="M14.9167 17.855C11.0315 18.2696 7.13447 18.2696 3.24923 17.855C1.70001 17.6896 0.476352 16.466 0.311008 14.9166C-0.103669 11.0314 -0.103669 7.13447 0.311008 3.24923C0.476352 1.70001 1.70001 0.476352 3.24923 0.311008C7.13447 -0.103669 11.0314 -0.103669 14.9166 0.311008C16.466 0.476352 17.6896 1.70001 17.855 3.24923C18.2696 7.13447 18.2696 11.0314 17.855 14.9166C17.6896 16.466 16.4661 17.6896 14.9167 17.855Z" fill="url(#paint0_linear_340_12112)"/>
<path id="Vector_2" d="M16.8671 3.90634C16.7204 2.53161 15.6347 1.44572 14.2598 1.29895C10.8121 0.931113 7.35416 0.931113 3.90646 1.29895C2.53173 1.44572 1.44584 2.53161 1.29907 3.90634C0.931235 7.35404 0.931235 10.812 1.29907 14.2596C1.44584 15.6344 2.53173 16.7203 3.90646 16.8669C7.35416 17.2349 10.8121 17.2349 14.2597 16.8669C15.6345 16.7203 16.7204 15.6344 16.8671 14.2596C17.235 10.812 17.235 7.35404 16.8671 3.90634Z" fill="url(#paint1_linear_340_12112)"/>
<path id="Vector_3" d="M0.271973 14.54C0.284446 14.6656 0.297336 14.7912 0.310779 14.9167C0.476124 16.466 1.69978 17.6896 3.24914 17.855C7.13438 18.2696 11.0313 18.2696 14.9165 17.855C16.4659 17.6896 17.6894 16.466 17.8547 14.9167C17.8682 14.7912 17.8811 14.6656 17.8937 14.54H0.271973Z" fill="url(#paint2_linear_340_12112)"/>
<path id="Vector_4" d="M12.213 3.02539C10.6302 3.02539 9.34722 4.30851 9.34722 5.89126V8.03187H7.80493V10.6822L9.34722 12.0636V18.1651C11.2047 18.1561 13.062 18.0529 14.9168 17.855C16.4662 17.6896 17.6897 16.466 17.855 14.9166C18.1635 12.0258 18.2424 9.12857 18.0918 6.23443L14.8827 3.02539H12.213Z" fill="url(#paint3_linear_340_12112)"/>
<path id="Vector_5" d="M9.34722 18.1651C10.4057 18.16 11.464 18.1241 12.5219 18.0576V10.6822H14.6283L14.8827 8.03187H12.5219V6.34891C12.5219 5.97719 12.8232 5.67589 13.1949 5.67589H14.8827V3.02539H12.213C10.6302 3.02539 9.34722 4.30851 9.34722 5.89126V8.03187H7.80493V10.6822H9.34722V18.1651Z" fill="white"/>
</g>
</g>
<defs>
<linearGradient id="paint0_linear_340_12112" x1="6.03146" y1="2.5541" x2="10.6261" y2="12.3846" gradientUnits="userSpaceOnUse">
<stop stop-color="#3457A0"/>
<stop offset="1" stop-color="#3B5998"/>
</linearGradient>
<linearGradient id="paint1_linear_340_12112" x1="12.5291" y1="11.4507" x2="-3.3509" y2="0.539627" gradientUnits="userSpaceOnUse">
<stop stop-color="#3457A0" stop-opacity="0"/>
<stop offset="1" stop-color="#1F3F77"/>
</linearGradient>
<linearGradient id="paint2_linear_340_12112" x1="9.08277" y1="15.1811" x2="9.08277" y2="17.6393" gradientUnits="userSpaceOnUse">
<stop stop-color="#3457A0" stop-opacity="0"/>
<stop offset="1" stop-color="#1F3F77"/>
</linearGradient>
<linearGradient id="paint3_linear_340_12112" x1="20.8547" y1="15.0022" x2="8.24598" y2="8.64438" gradientUnits="userSpaceOnUse">
<stop stop-color="#3457A0" stop-opacity="0"/>
<stop offset="0.3251" stop-color="#2A4C8D" stop-opacity="0.32549"/>
<stop offset="0.7045" stop-color="#22427D" stop-opacity="0.705882"/>
<stop offset="1" stop-color="#1F3F77"/>
</linearGradient>
</defs>
</svg>
