<svg width="31" height="29" viewBox="0 0 31 29" fill="none" xmlns="http://www.w3.org/2000/svg">
<g id="Group">
<path id="Vector" d="M23.2966 16.5031L22.3104 17.9893L21.0892 11.8823L20.155 14.5077C20.2986 14.9183 20.5456 15.6924 20.7371 16.6256L20.9172 16.124L21.6963 20.0182L23.7106 17.5032H30.0047V16.5031H23.2966Z" fill="white"/>
<path id="Vector_2" d="M10.7913 5.69656C11.1604 5.51603 11.546 5.37001 11.9435 5.25899L11.569 0.386656C11.549 0.125112 11.2669 -0.0599199 11.0194 0.0210939L10.5113 0.190623C10.2062 0.29214 10.0017 0.576189 10.0017 0.897244C10.0017 0.938251 10.0052 0.979257 10.0117 1.02026L10.7913 5.69656Z" fill="white"/>
<path id="Vector_3" d="M11.7054 10.0017C12.7506 10.0017 13.7762 9.64213 14.5929 8.98902C15.3775 8.36141 16.3162 7.94234 17.3068 7.77731L17.8314 7.6898C16.7832 6.63912 15.3365 6.00101 13.7572 6.00101C11.8814 6.00101 10.1196 6.91816 9.04442 8.45543C8.9274 8.62296 8.81788 8.79448 8.71387 8.96801C9.53501 9.63563 10.5537 10.0017 11.6234 10.0017H11.7054Z" fill="white"/>
<path id="Vector_4" d="M0.323555 6.35409L2.38241 7.38326C3.09253 7.73832 3.61412 8.36143 3.85316 9.10106C4.19222 9.03905 4.53878 9.00154 4.89484 9.00154H4.96035C5.35191 9.00154 5.74498 9.04055 6.12805 9.11706L7.37126 9.3656C7.6038 8.86102 7.88335 8.37543 8.2049 7.91235L7.17022 6.87768C6.74865 6.45611 6.49111 5.89651 6.4451 5.30141L6.06954 0.418073C6.04853 0.146526 5.76749 -0.0540079 5.50894 0.0130035L4.45926 0.275048C4.18922 0.34356 4.00068 0.585101 4.00068 0.864149C4.00068 0.914158 4.00668 0.963166 4.01869 1.01067L4.83283 4.26673C4.97985 4.85683 4.7033 5.45843 4.15921 5.73048C3.72064 5.95002 3.20405 5.90351 2.81098 5.60846L1.50726 4.63079C1.22021 4.41676 0.773132 4.49227 0.574098 4.79082L0.0980168 5.50444C0.0340059 5.60146 0 5.71348 0 5.83C0 6.05304 0.124021 6.25407 0.323555 6.35409Z" fill="white"/>
<path id="Vector_5" d="M3.66879 16.5026C5.25706 16.5026 6.50077 15.2374 6.50077 13.6216V13.3506C6.50077 12.3059 6.6688 11.2822 6.99586 10.3105L5.93168 10.0975C5.61262 10.034 5.28556 10.0015 4.96001 10.0015H4.8945C2.26205 10.0015 0.10818 12.1359 0.00366211 14.7993L0.320216 15.1159C1.21487 16.01 2.40407 16.5026 3.66879 16.5026Z" fill="white"/>
<path id="Vector_6" d="M14.781 5.08385L15.9547 1.56275C15.9867 1.46773 16.0027 1.36771 16.0027 1.2677C16.0027 0.954644 15.8472 0.664094 15.5867 0.490565L14.9441 0.0619916C14.7325 -0.0790325 14.416 0.0574908 14.3745 0.309034L13.5908 5.01134C13.6468 5.00984 13.7013 5.00083 13.7573 5.00083C14.1054 5.00083 14.446 5.03284 14.781 5.08385Z" fill="white"/>
<path id="Vector_7" d="M19.3828 3.96412C19.4608 3.87061 19.5033 3.75259 19.5033 3.63107C19.5033 3.43253 19.3933 3.2545 19.2158 3.16549L19.0468 3.08097C18.7042 2.90944 18.2586 3.03446 18.0556 3.36002L16.6309 5.63941C16.9514 5.78994 17.257 5.96797 17.548 6.1655L19.3828 3.96412Z" fill="white"/>
<path id="Vector_8" d="M11.502 18.503C12.3305 18.503 13.0022 17.8314 13.0022 17.0028C13.0022 16.1742 12.3305 15.5025 11.502 15.5025C10.6734 15.5025 10.0017 16.1742 10.0017 17.0028C10.0017 17.8314 10.6734 18.503 11.502 18.503Z" fill="white"/>
<path id="Vector_9" d="M16.516 14.7443L15.9029 17.5028H13.9511C13.7185 18.6425 12.7089 19.5031 11.5012 19.5031C10.1224 19.5031 9.00073 18.3814 9.00073 17.0027C9.00073 15.6239 10.1224 14.5022 11.5012 14.5022C12.7084 14.5022 13.7185 15.3629 13.9511 16.5026H15.1008L16.488 10.2595L18.5494 19.0195L20.1546 14.5072C20.0861 14.3107 20.0401 14.1932 20.0381 14.1882L20.0101 14.0897L19.4215 10.7546C19.2805 9.95647 18.9764 9.22485 18.5534 8.58374L17.4707 8.76427C16.648 8.90129 15.8689 9.24935 15.2173 9.77044C14.2236 10.5641 12.9764 11.0017 11.7047 11.0017H11.6222C10.391 11.0017 9.21677 10.6011 8.2471 9.87046C7.75952 10.9591 7.50048 12.1378 7.50048 13.3506V13.6216C7.50048 15.762 5.78118 17.5028 3.66832 17.5028C2.3406 17.5028 1.08188 17.0547 0.064209 16.23C0.320253 18.5464 1.32392 20.7333 2.9557 22.4906C5.13007 24.8325 7.84754 26.6993 10.8145 27.89L13.3195 28.8937C13.755 29.0677 14.2836 29.0362 14.6507 28.7372L14.8987 28.5346C17.8872 26.0887 20.0531 22.6841 21.0028 18.942C20.9973 18.1409 20.8838 17.3382 20.7372 16.6246L18.4558 22.9877L16.516 14.7443Z" fill="white"/>
</g>
</svg>
