<svg width="266" height="267" viewBox="0 0 266 267" fill="none" xmlns="http://www.w3.org/2000/svg">
<path d="M263.999 130.689C256.552 123.508 249.51 115.933 242.063 108.752C239.876 107.067 239.108 104.111 240.207 101.572C243.269 91.2014 245.926 80.8308 248.849 70.4602C249.649 67.9316 249.244 66.8753 246.459 66.2031C235.822 63.5465 225.323 60.3563 214.547 57.689C211.485 57.0275 210.29 55.4271 209.628 52.6318C206.972 42.2612 204.048 32.1573 201.52 21.7868C200.72 18.7247 199.791 18.0632 196.729 18.9914C186.359 21.9148 175.86 24.5714 165.49 27.2388C163.761 27.7722 162.161 28.167 160.571 26.5773C152.057 17.8178 143.148 9.44235 134.911 0.266733C133.972 0.288072 133.033 0.202717 132.116 0C132.169 0.704175 131.806 1.38701 131.188 1.72843C123.207 9.57038 115.237 17.4123 107.384 25.393C105.88 27.2388 103.341 27.8896 101.132 26.9934C90.7616 24.07 80.391 21.4133 70.0205 18.4793C67.0971 17.6791 65.9021 18.2125 65.1019 21.2746C62.4452 31.6452 59.3831 42.0158 56.7265 52.3864C56.4491 54.5629 54.774 56.302 52.6081 56.6434C42.1095 59.3001 31.867 62.2235 21.3684 64.7521C17.9115 65.5523 16.9833 66.7473 18.0395 70.3322C21.1016 80.5747 23.4915 91.0733 26.4149 101.444C27.3538 103.652 26.703 106.202 24.8145 107.696C16.9726 115.271 9.38671 123.124 1.54476 130.699C-0.578438 132.694 -0.450406 133.889 1.54476 135.884C9.25868 143.46 16.7059 151.174 24.4091 158.749C26.3082 160.157 27.0231 162.675 26.1375 164.862C23.2141 175.105 20.6855 185.337 17.6234 195.579C16.5565 199.164 17.09 200.637 20.9522 201.565C31.3228 204.093 41.4267 207.145 51.7972 209.673C54.8593 210.335 56.0543 211.935 56.7158 214.731C59.3725 225.229 62.2959 235.472 64.9632 245.971C65.6247 248.627 66.5636 249.299 69.2203 248.499C79.4628 245.576 89.8227 243.186 100.065 240.252C102.786 239.228 105.859 240.092 107.64 242.375C114.949 249.95 122.396 257.269 129.715 264.845C131.977 267.234 133.3 267.373 135.701 264.973C143.009 257.259 150.723 249.95 158.17 242.236C159.845 240.028 162.78 239.217 165.351 240.241C175.593 243.303 185.825 245.821 196.068 248.755C198.991 249.555 200.186 249.022 200.986 245.96C203.515 235.717 206.705 225.485 209.234 215.243C209.895 212.181 211.357 210.986 214.291 210.324C224.662 207.796 234.765 204.872 245.136 202.344C248.198 201.682 249.126 200.487 248.198 197.286C245.275 186.916 242.618 176.279 239.684 165.78C238.745 163.571 239.396 161.021 241.284 159.528C248.86 152.219 256.307 144.505 264.021 137.197C266.795 134.551 266.528 133.217 263.999 130.689ZM66.8303 124.714C66.8303 124.724 66.8303 124.735 66.8303 124.746C66.7876 129.259 63.0961 132.876 58.5829 132.833H50.3356C46.8787 132.833 43.4218 132.833 39.8369 132.961C37.9805 132.961 37.447 132.3 37.8418 130.432C38.77 126.581 39.6982 123.519 44.7555 122.719C51.2745 121.79 57.516 119.528 63.8963 117.661C66.1582 117.128 67.0864 117.395 66.8197 119.784C66.7023 121.385 66.8303 123.113 66.8303 124.714ZM66.4356 197.254C60.9515 192.09 56.0436 187.321 51.0077 182.552C55.2648 180.162 59.3831 177.9 63.3735 175.51C65.6354 174.177 66.4356 174.443 66.4356 177.239C66.3075 183.726 66.4356 190.362 66.4356 197.254ZM51.6799 179.757C50.0795 180.685 49.6847 180.29 49.29 178.69C48.095 173.899 46.6333 169.119 45.4383 164.329C45.1716 163.262 45.0436 161.939 46.0998 161.267C47.1668 160.605 47.9563 161.534 48.7565 161.928C54.2085 164.99 59.6605 168.18 65.9128 171.637C60.8555 174.433 56.193 176.961 51.6799 179.757ZM41.576 108.486C40.2424 111.814 35.5906 112.337 32.5391 114.471C29.477 106.629 29.477 106.629 34.801 101.177C38.5246 97.4536 42.2482 93.8687 45.9718 90.1451C46.3132 89.9317 46.6653 89.761 47.0387 89.6116C45.1609 96.2586 43.966 102.639 41.576 108.486ZM49.546 88.1499C49.8128 86.955 50.741 87.2217 51.4025 87.6165C55.9263 90.2731 60.3114 92.9298 65.358 95.8638C58.1775 99.9822 51.6586 103.706 44.222 107.696C46.0892 100.644 47.8176 94.3915 49.546 88.1499ZM35.5906 123.113C34.1289 123.113 34.1289 121.652 33.8621 120.723C32.4004 116.338 32.6672 116.072 40.6478 112.743C39.901 115.805 39.1861 118.323 38.578 120.723C38.3752 122.185 37.0629 123.241 35.5906 123.113ZM27.6099 125.375C22.5526 126.709 17.5061 127.904 12.4488 129.099L12.054 128.565L30.4053 117.8C33.4674 123.519 33.3287 123.913 27.6099 125.375ZM31.4722 126.442C34.9291 125.642 33.8621 129.237 34.5343 130.699C35.1958 132.161 34.2676 132.822 32.6778 132.822H10.9978C10.9978 132.556 10.8697 132.161 10.8697 131.894C17.6448 130.166 24.4198 128.171 31.4722 126.442ZM36.6788 139.021C38.0018 144.046 39.3248 149.072 40.8292 154.492C30.7467 149.584 32.0483 152.347 36.6788 139.021ZM33.254 153.297C36.5828 153.169 42.5576 158.749 42.5576 161.811C41.7041 164.073 39.901 166.196 38.1725 168.597C38.0445 168.597 37.9058 168.725 37.7778 168.725C36.4441 168.991 29.9358 161.011 30.2025 159.549C30.3306 159.282 30.3306 159.016 30.4693 158.749C31.3868 156.882 30.3306 153.425 33.254 153.297ZM36.1774 175.233C37.511 173.238 38.4393 172.438 40.2957 174.699C42.0135 176.663 43.8273 178.519 45.7477 180.28C46.4092 181.08 47.7429 181.741 46.0145 182.808C38.4393 187.065 30.7253 191.45 23.1501 195.707C22.9367 195.515 22.766 195.291 22.6167 195.046C27.0764 188.399 31.6002 181.88 36.1774 175.233ZM43.5712 165.129C44.7662 169.386 45.8331 173.643 47.0281 178.156C38.3859 172.043 38.1192 171.243 43.5712 165.129ZM46.7613 155.953C45.2996 158.215 43.6992 157.287 43.1764 155.42C41.32 149.04 39.5916 142.659 37.9912 136.279C37.3297 134.156 39.1861 134.679 40.2531 134.679H61.389C56.193 142.265 51.5412 149.178 46.7613 155.953ZM65.6354 115.271C57.5267 117.395 49.418 119.528 40.9039 121.79C41.4373 114.076 44.094 109.03 51.1464 106.234C56.4597 104.111 61.2503 100.654 66.969 97.4642V113.415C67.0864 114.279 66.5102 115.101 65.6354 115.271ZM66.8303 74.4505V94.2635C61.9118 91.4681 57.5267 88.8114 53.2696 86.2828C51.8079 85.4826 51.4132 84.6824 52.8749 83.2207C56.4597 79.7638 59.9166 76.307 63.3735 72.7221C64.0243 71.7725 65.2619 71.4418 66.2969 71.9219C67.3638 72.3273 66.8303 73.5223 66.8303 74.4505ZM52.0747 79.9025C53.4083 70.4602 54.0698 69.7987 60.9835 71.9219C57.9214 74.7172 54.87 77.3739 52.0747 79.9025ZM65.7741 28.7218C66.0408 28.8498 66.4356 28.8498 66.7023 28.9885V46.6676C66.7023 53.9761 66.7023 53.9761 58.5936 55.043C60.9835 46.1341 63.3735 37.364 65.7741 28.7218ZM56.9932 60.495C57.5267 57.0382 60.1833 57.4329 62.4452 56.5047C66.2969 54.9043 67.0971 56.6328 66.7023 59.9616V61.562C66.7023 68.7424 63.1174 71.3991 56.4597 69.0092C55.6595 68.7424 55.1261 68.4757 55.2648 67.6755C55.7982 65.2749 56.5984 62.885 56.9932 60.495ZM26.4149 65.9471C35.9106 63.5571 45.4277 61.0285 55.4035 58.4999C54.6033 61.69 53.9418 64.2186 53.2803 66.8753C52.7468 68.9985 51.1571 68.6037 49.6954 68.4757C41.9815 67.8142 34.1395 67.2807 26.2976 66.6192C26.3936 66.4059 26.4363 66.1711 26.4149 65.9471ZM49.8128 70.4602C51.6692 70.5882 52.0747 71.2604 51.6692 73.1169C49.2793 84.0209 49.4073 84.0209 39.965 78.4302C35.0464 75.5068 29.9892 72.5834 24.5371 69.3933C33.4674 68.6037 41.7041 70.0654 49.8128 70.4602ZM20.9629 71.1324C20.8349 70.7376 20.8349 70.4709 20.6962 70.0654C21.091 70.0654 21.3577 70.1935 21.7631 70.1935C29.7438 74.8453 37.8525 79.6358 46.0892 84.2876C46.8894 84.8211 48.0843 85.0878 46.7507 86.5495C41.2986 92.1296 35.9853 97.8483 30.6613 103.567C30.1492 103.396 29.6584 103.183 29.1996 102.906C26.4149 92.2683 23.7583 81.7697 20.9629 71.1324ZM27.8766 108.091C28.2714 108.486 28.6768 108.624 28.6768 108.752C30.5333 115.538 30.5333 115.538 24.4198 118.995C19.896 121.652 15.2442 124.18 10.1976 126.976C16.3111 120.318 22.0299 114.204 27.8766 108.091ZM6.34595 134.679C14.8601 134.679 23.2355 134.679 31.7389 134.551C34.0008 134.551 34.9291 134.946 34.0008 137.613C32.6672 141.198 32.8059 146.917 30.4159 148.112C27.6206 149.573 23.7689 145.188 20.4401 143.46C15.6496 140.931 10.9978 138.008 6.21792 135.351C6.2606 135.127 6.31394 134.903 6.34595 134.679ZM9.66411 140.536L9.79214 140.408C16.5778 142.937 22.4246 147.194 28.6662 150.651C30.3946 151.579 29.9998 153.98 27.4712 159.026C21.3684 152.891 15.2442 147.045 9.66411 140.536ZM28.8049 164.062C29.1996 164.19 29.6051 164.19 29.7331 164.329C36.6468 170.976 36.6468 170.976 31.1948 178.818C28.2714 183.075 25.2093 187.193 22.2859 191.312L21.6244 190.778L28.8049 164.062ZM20.6962 199.559C29.9998 194.246 38.3752 189.455 46.8894 184.665C47.9563 184.003 48.4898 184.131 48.8845 185.465C50.8797 193.04 52.8749 200.487 55.1367 208.863C43.3045 205.544 32.5285 202.621 20.6962 199.559ZM66.0941 238.385C65.8274 238.385 65.5607 238.513 65.2939 238.513C62.904 229.871 60.6421 221.228 58.2522 212.319H58.1988C59.1271 212.191 59.3938 212.053 59.7139 212.191C66.0941 213.653 66.0941 213.653 66.0941 220.3V238.385ZM66.3075 211.263C65.3793 211.391 65.2406 211.53 65.2406 211.53C59.3938 211.135 56.2037 208.201 55.4035 202.226C54.6033 197.169 53.0136 192.389 52.4801 187.065C56.7371 191.322 61.2503 195.313 65.1126 199.964C67.8973 203.283 65.2406 207.412 66.3075 211.263ZM66.8303 147.45L66.4356 166.068C66.4356 168.458 66.0408 169.525 63.5122 167.924C58.9884 165.268 54.4753 162.611 49.8128 160.211C47.8176 159.144 47.8176 158.215 49.0126 156.487C53.6644 149.84 58.3162 143.193 62.84 136.407C63.3628 135.234 64.6324 134.572 65.9021 134.807C67.7586 135.074 66.8303 136.535 66.8303 137.464C66.969 140.792 66.8303 144.121 66.8303 147.45ZM181.173 84.6931C177.183 82.0364 172.265 80.9695 170.536 75.7842C169.843 74.3011 169.896 72.5727 170.664 71.1324C174.121 65.4136 177.45 59.6948 180.64 53.9761C181.974 51.7142 182.763 52.1196 184.492 53.5813C187.415 56.11 188.482 58.6386 187.148 62.4902C184.897 69.7987 183.169 77.2459 181.173 84.6931ZM197.796 184.942C197.796 195.974 197.796 195.974 186.764 195.046C181.451 194.651 175.999 194.118 170.675 193.712C169.341 193.584 168.285 193.445 167.879 191.856C167.485 190.255 168.946 190.127 169.875 189.594C178.25 184.942 186.497 180.29 194.734 175.5C197.263 174.038 198.063 174.699 197.796 177.495C197.658 180.023 197.796 182.413 197.796 184.942ZM149.795 218.572C145.271 215.243 140.086 212.725 134.901 209.663C139.691 207.006 144.076 204.478 148.6 201.821C149.379 201.223 150.488 201.341 151.129 202.088C156.975 207.934 162.961 213.792 169.074 219.905C168.274 220.567 168.146 220.706 168.146 220.706C161.627 223.629 155.652 223.095 149.795 218.572ZM155.247 224.162C148.333 225.891 142.22 227.619 136.106 229.22C134.645 229.614 134.111 229.22 134.111 227.619V211.669C141.42 215.915 147.938 219.767 155.247 224.162ZM87.7102 217.643C85.8537 217.11 86.782 216.043 87.3154 215.115C90.7723 209.129 94.3572 203.144 98.0808 196.636C101.932 204.744 105.528 212.191 108.985 219.639C110.318 222.295 108.985 223.224 106.862 222.701C100.471 221.239 94.0904 219.372 87.7102 217.643ZM105.261 224.429C96.491 230.276 96.2243 230.148 88.5104 219.905C94.2185 221.495 99.5425 222.829 105.261 224.429ZM85.1069 184.537C85.2349 183.875 85.6403 183.203 86.4405 183.736C89.2359 185.465 92.554 186.265 94.5492 189.188C96.5444 192.112 97.3446 195.035 94.8159 198.492C91.7859 202.941 89.0759 207.614 86.7073 212.448C84.7121 216.299 83.1224 216.032 80.8605 212.981C79.9323 211.647 78.0651 210.986 78.4706 208.863C80.6578 200.765 82.7916 192.645 85.1069 184.537ZM68.6975 57.433C68.6761 57.3263 68.6548 57.2089 68.6548 57.1022C68.5374 55.6405 69.6364 54.3602 71.0981 54.2428C74.0214 53.7094 76.9448 52.9092 79.8682 52.1196C80.2203 52.0556 80.5831 52.0556 80.9352 52.1196C80.6898 52.2797 80.4977 52.5144 80.4017 52.7811C76.6781 56.366 72.9545 60.0896 68.6975 64.2186C68.6975 61.69 68.8255 59.5668 68.6975 57.433ZM69.6257 66.7473C74.4162 61.69 79.3348 56.7715 84.6481 51.3194C88.7664 58.4999 92.362 64.8801 96.6191 72.0606C87.1767 71.3991 78.5346 70.8656 70.0311 69.9374C67.5025 69.6707 68.5588 67.8035 69.6257 66.7473ZM114.96 48.0013C119.878 51.8529 125.725 54.6483 131.71 58.1051C126.92 60.9005 122.674 63.2904 118.416 65.819C117.35 66.4805 116.56 66.886 115.493 65.819C109.646 59.8335 103.661 53.9868 97.4086 47.7345C103.8 45.2059 109.113 43.4775 114.96 48.0013ZM111.375 43.7442C118.16 41.8878 124.135 40.2874 130.249 38.687C131.71 38.2922 132.511 38.4202 132.511 40.2874V56.11C125.33 51.9809 118.683 48.0013 111.375 43.7442ZM127.517 99.4487C126.184 97.8483 124.061 99.5768 122.46 99.9822C115.813 101.583 115.941 101.711 112.484 95.7251C109.561 90.4118 106.638 85.0878 103.447 79.9025C102.252 77.7794 102.381 76.7124 104.642 75.7842C105.976 75.2507 107.171 74.5892 108.366 74.0558C111.161 72.8608 113.679 69.6707 116.347 70.2041C119.409 70.8656 121.265 74.4612 123.655 76.7231C131.049 84.1703 138.357 91.7455 145.943 98.9259C148.803 101.551 150.563 105.157 150.862 109.03C142.273 107.568 133.844 106.234 125.522 104.645C125.522 104.378 125.394 104.111 125.522 103.844C125.917 102.244 128.979 101.305 127.517 99.4487ZM68.8255 82.5592L68.8788 81.2255C68.8788 71.7832 68.8788 71.7832 78.0544 72.4554C83.9012 72.8501 89.8867 73.5223 95.7335 73.917C97.0672 74.0451 98.2088 74.0451 98.6036 75.6455C98.9983 77.2459 97.5366 77.3739 96.7471 77.9074L71.6208 92.2683C68.9642 93.8687 68.6975 92.663 68.8255 90.4118C68.9642 87.7445 68.8255 85.2265 68.8255 82.5592ZM77.2009 91.4681C84.2427 88.0112 90.7616 84.0209 97.4086 80.0306C99.9372 78.4302 100.865 79.2304 102.06 81.4923C105.251 87.6058 108.707 93.5913 112.303 99.4381C113.765 101.828 113.37 102.5 110.703 103.162C98.0701 106.352 85.4376 109.809 72.8158 113.266C70.0205 114.066 68.9642 113.799 69.3589 110.737C69.487 108.88 69.3589 106.885 69.3589 103.823C67.0971 97.5923 71.2261 94.2635 77.2009 91.4681ZM68.9642 130.027C69.0922 128.299 69.3589 126.442 69.3589 124.714C69.487 116.338 69.487 116.338 77.3396 114.215C87.5822 111.558 97.814 108.902 108.057 105.968C112.175 104.773 116.165 104.239 120.55 106.362C114.97 113.009 109.518 119.656 104.194 126.303C102.338 124.97 103.127 121.513 100.865 121.78C98.8703 122.046 99.4038 124.97 98.7423 126.698C98.2621 127.989 97.91 129.323 97.6753 130.689C97.6753 130.721 97.6647 130.763 97.6647 130.795C97.4193 132.3 96.0002 133.324 94.4852 133.078C86.91 132.95 79.3241 132.812 71.7489 132.95C69.359 132.95 68.6974 132.022 68.9642 130.027ZM97.2806 45.3339C95.9256 45.8247 94.4212 45.1846 93.8237 43.8722C92.8955 42.4105 94.3572 41.8771 95.0187 41.2156C98.2088 37.7587 98.3475 37.7587 105.656 43.072C102.594 43.8722 99.8092 44.4057 97.2806 45.3339ZM94.2718 38.8257C92.5434 41.3543 90.943 41.4823 88.6918 38.9537C85.3629 35.2301 81.65 31.7732 78.0544 28.1883C78.1825 27.9216 78.3212 27.5268 78.4492 27.2601C84.6481 29.65 89.8334 33.9071 95.4668 36.7025C95.6055 37.8868 94.6773 38.1535 94.2718 38.8257ZM99.2757 52.5144C104.333 57.433 109.252 62.3515 114.704 67.6755C112.218 69.3186 109.646 70.8336 106.99 72.1993C103.277 73.8744 98.9023 72.3593 97.0138 68.7424C93.557 62.6289 90.1001 56.6434 86.6432 50.5299C94.2185 47.4678 94.2185 47.5958 99.2757 52.5144ZM68.5588 138.136C68.5588 135.607 68.9535 134.551 71.8876 134.679C79.068 134.946 86.2485 134.807 93.4289 134.807C95.2854 134.807 96.3523 135.074 95.6908 137.335C91.8392 151.291 88.1156 165.257 84.2533 179.618C81.8634 178.156 79.8682 177.089 78.0011 176.033C68.164 170.453 68.164 170.453 68.4307 159.282C68.6974 152.23 68.6975 145.188 68.5588 138.136ZM100.343 196.241C99.6812 195.046 99.2757 193.979 100.471 192.912C101.399 191.984 102.199 192.912 102.999 193.307C112.175 198.62 121.212 204.072 130.782 209.663C125.063 212.992 119.878 216.043 114.832 219.105C113.103 220.3 111.908 220.706 110.841 218.177C107.523 210.868 103.928 203.549 100.343 196.241ZM97.814 187.599C96.7471 186.937 95.8189 186.137 94.7519 185.475C91.9566 183.48 87.3047 183.086 86.6432 179.895C85.9818 176.972 87.9769 173.376 88.9051 170.058C91.5618 160.488 94.3572 151.046 96.6191 141.336C97.3979 137.25 99.7345 133.633 103.138 131.233C105.795 138.541 108.323 145.722 111.247 152.507C112.047 154.897 111.908 155.836 109.124 155.303C108.195 155.175 107 154.769 106.467 155.836C105.933 156.903 107.128 157.436 107.662 158.226C109.518 160.755 113.775 162.216 113.509 165.535C113.242 168.33 110.713 170.987 109.124 173.782C106.595 178.039 104.066 182.296 101.676 186.681C100.609 188.666 99.5425 188.922 97.814 187.599ZM113.498 154.097C110.703 146.522 107.918 138.808 105.123 131.233C104.386 129.867 104.664 128.181 105.784 127.114C111.236 120.862 116.549 114.482 121.735 108.102C122.514 106.917 123.965 106.373 125.32 106.768C133.3 108.23 141.409 109.691 149.379 111.025C151.171 111.196 152.665 112.476 153.102 114.215C155.759 121.524 158.416 128.971 161.211 136.29C162.033 137.89 161.702 139.832 160.411 141.08C155.226 147.066 150.168 153.307 144.983 159.432C144.055 160.499 143.383 161.822 141.921 161.16C133.151 159.698 124.765 158.237 116.261 156.775C114.565 156.487 114.031 155.42 113.498 154.097ZM141.153 163.134C141.153 165.396 137.568 166.463 139.03 168.191C140.491 169.92 143.02 168.319 144.748 167.53C149.4 165.406 151.79 167.135 153.924 171.381C156.581 176.961 159.909 182.285 163.1 187.599C164.433 189.861 164.167 191.056 161.766 191.984C160.219 192.613 158.714 193.317 157.242 194.107C149.934 198.097 149.934 198.097 144.215 192.379C136.64 184.803 129.193 177.217 121.617 169.781C118.694 166.858 115.899 163.934 115.899 158.749C124.402 160.211 132.777 161.672 141.153 163.134ZM169.213 222.562C170.579 222.05 172.105 222.615 172.798 223.896C173.598 225.229 172.137 225.752 171.464 226.552C168.274 230.009 168.274 230.009 160.966 224.696C164.028 223.896 166.684 223.362 169.213 222.562ZM167.485 216.054C163.228 211.135 158.448 206.75 153.785 202.226C151.929 200.37 152.057 199.57 154.447 198.503C157.37 197.169 159.632 194.512 163.356 195.313C166.546 194.512 168.146 196.38 169.608 199.164C172.531 204.616 175.593 209.93 178.783 215.254C179.712 216.982 179.584 217.643 177.589 218.444C173.598 220.033 170.536 219.639 167.485 216.054ZM189.335 176.3C182.422 179.757 175.775 183.875 169.128 187.737C167.005 188.932 165.938 189.071 164.604 186.67C161.275 180.29 157.69 174.038 153.967 167.924C152.633 165.801 153.433 165.129 155.428 164.596C168.456 161.267 181.355 157.949 194.254 154.353C196.783 153.692 197.583 154.086 197.316 156.615C197.188 158.61 197.316 160.733 197.316 163.923H197.263C199.525 170.176 195.449 173.504 189.335 176.3ZM197.658 138.274C197.529 139.875 197.263 141.603 197.263 143.193C197.135 151.568 197.135 151.44 188.887 153.692C178.912 156.348 168.946 159.005 158.971 161.8C154.714 162.995 150.456 163.923 146.071 161.405L162.555 141.731C164.412 142.926 163.484 146.522 165.746 146.116C168.007 145.722 167.602 142.659 168.136 140.803C169.864 134.818 169.864 134.818 175.977 134.818C182.091 134.818 188.343 134.946 194.595 134.818C197.263 134.818 197.924 135.874 197.658 138.274ZM169.736 128.032C168.808 131.755 166.813 134.145 163.622 136.674C160.56 128.427 157.776 120.585 154.852 112.743C156.709 111.409 159.557 113.81 160.166 111.548C160.827 109.819 158.17 108.624 156.837 107.291C152.452 102.767 152.452 102.906 155.642 97.3149C158.704 92.1296 161.894 87.211 164.551 81.887C166.151 78.6969 167.741 78.9636 170.131 80.8201C170.899 81.4389 171.699 82.0151 172.521 82.5485C174.911 84.405 179.306 84.9385 179.968 87.7338C180.629 90.5292 178.773 93.8473 177.973 96.9094C175.327 107.291 172.265 117.661 169.736 128.032ZM178.912 50.2525C180.64 50.6473 179.84 51.8529 179.306 52.7811C175.849 58.7666 172.393 64.7521 168.541 71.2604C164.551 63.1517 161.094 55.5765 157.637 48.2573C156.442 45.7287 157.509 44.6724 159.76 45.1952C166.151 46.6676 172.531 48.5241 178.912 50.2525ZM161.499 43.3388C171.07 37.492 167.346 36.1583 178.517 47.9906C172.265 46.4009 167.079 44.9392 161.499 43.3388ZM166.279 71.2604C166.813 72.3273 167.474 73.5223 166.407 74.7172C165.073 76.1789 164.145 74.7172 163.217 74.1838C154.18 68.9985 145.271 63.6852 135.829 58.0945C141.814 54.6376 147.394 51.4475 152.718 48.2573C154.447 47.1904 155.108 47.8626 155.78 49.3243C159.237 56.6328 162.822 63.9519 166.279 71.2604ZM185.292 49.8577C183.435 49.8577 184.225 48.396 184.758 47.4678C188.087 41.7491 191.405 36.169 194.734 30.4502C195.097 30.4716 195.46 30.5676 195.801 30.717C194.126 36.9692 192.611 43.4775 190.488 49.7297C189.549 52.7811 187.159 49.8577 185.292 49.8577ZM191.939 31.1117C188.749 36.6918 185.42 42.2825 182.23 47.8626C178.645 44.139 175.444 40.6821 171.987 37.0972C179.562 32.7121 187.276 27.5268 195.524 23.5365C195.396 26.5879 193.272 28.7218 191.939 31.1117ZM168.2 28.9885C175.241 26.9934 182.294 25.2649 189.474 23.4085L189.869 24.2087H189.816C183.489 27.7936 177.183 31.9226 170.728 35.2408C168.072 36.5744 166.343 33.1176 165.276 30.9837C164.209 28.8498 167.133 29.2446 168.2 28.9885ZM160.699 30.717C163.622 31.6452 165.084 34.4406 167.218 36.169C167.325 36.5424 167.218 36.9479 166.951 37.2359C164.135 39.1351 161.147 40.7781 158.042 42.1545C155.78 42.9547 150.328 36.3077 151.001 33.9071C151.001 33.5123 151.662 33.1069 152.068 32.9789C154.852 32.1787 157.637 31.5065 160.699 30.717ZM158.971 28.7218C158.896 28.7858 158.843 28.8819 158.843 28.9885C150.072 32.0506 149.934 32.0506 145.943 23.6752C143.82 19.1514 141.686 14.7663 139.424 9.84778C142.753 11.1708 156.847 24.9982 158.971 28.7218ZM134.645 7.44719C135.039 7.44719 135.306 7.31915 135.711 7.31915C139.296 14.8944 142.892 22.4803 146.477 29.7887C147.138 31.1224 147.277 31.9119 145.549 32.5841C135.178 36.7025 134.645 36.4357 134.645 25.5424V7.44719ZM137.034 38.8257C141.686 40.2874 146.338 41.4823 150.99 42.6773C152.057 42.944 153.113 43.2107 153.38 44.5337C153.508 45.3339 152.985 45.7287 152.313 46.1341C146.466 49.463 140.747 52.9198 134.367 56.6328V40.8208C134.239 38.687 135.039 38.1535 137.034 38.8257ZM136.693 60.8898C145.207 66.0751 153.711 71.1324 162.353 76.0509C164.476 77.2459 164.615 78.1741 163.42 80.1693C159.568 86.2828 156.111 92.535 152.516 98.7872C151.587 100.516 150.915 101.316 149.059 99.4487C138.816 89.3449 128.584 79.3691 117.819 68.8705H117.766C123.079 65.8084 127.475 63.4184 131.774 60.7618C133.268 59.7375 135.253 59.7909 136.693 60.8898ZM109.038 27.2601C116.56 19.5462 124.007 11.8323 131.454 4.12903C131.849 4.39576 132.116 4.66249 132.521 4.92923L132.575 32.9789C132.575 34.974 131.774 35.5075 130.046 34.974C122.866 32.9789 115.557 30.9837 107.971 28.8605C108.281 28.2844 108.633 27.7509 109.038 27.2601ZM107.384 31.1117C114.031 32.8402 120.817 34.5686 127.464 36.4251V37.3533C122.151 38.815 116.699 40.2767 111.247 41.8771C106.723 42.944 104.066 39.0817 100.609 37.492C100.343 37.364 100.215 36.6918 100.215 36.4251C100.343 34.9634 105.923 30.717 107.384 31.1117ZM102.733 29.5113C98.7423 36.0303 98.3475 36.1583 92.6287 32.7015C87.7102 29.6394 82.2582 27.1214 77.7344 23.3978C86.4299 24.4648 94.4105 27.9216 102.733 29.5113ZM75.4725 28.1883C79.9963 32.7121 84.6481 37.2253 88.9051 42.0158C91.167 44.6724 87.4435 45.2059 86.6432 46.6676C85.9818 47.8626 85.0429 48.0013 84.2533 46.5396C80.9245 40.6928 77.6063 34.974 74.2775 29.1272C74.6829 28.8498 75.0777 28.4551 75.4725 28.1883ZM68.6975 41.4823C68.4307 35.9023 68.5694 30.4502 68.5694 24.8595C68.8468 24.8275 69.1242 24.7422 69.3696 24.5928C73.6267 32.04 77.8837 39.4872 82.1301 47.0624C83.0584 48.5241 82.7916 49.3243 81.0632 49.591C80.9352 49.591 80.7965 49.719 80.6684 49.719C76.9448 50.6473 72.293 53.4426 69.7644 52.109C66.8303 50.5192 68.8255 45.2059 68.6975 41.4823ZM68.164 194.907C68.8255 187.993 68.292 180.952 68.292 173.099C73.4773 176.161 77.8624 178.679 82.2475 181.208C83.7092 182.136 83.3144 183.203 82.909 184.398C80.7858 192.112 78.7906 199.826 76.5287 208.329C72.6878 204.083 67.5025 201.821 68.164 194.907ZM68.6975 203.688C70.8206 205.811 72.8158 207.806 74.811 209.673C76.0059 210.74 75.6112 211.797 75.2057 213.002C74.6723 214.859 73.3493 213.536 72.5491 213.397C67.5025 212.33 66.969 211.263 68.6975 203.688ZM68.292 238.523C68.164 238.523 68.0253 238.395 67.8973 238.395C67.8973 230.553 67.8973 222.839 67.7692 215.126C68.164 214.997 68.4307 214.731 68.5694 214.731C74.4162 215.926 74.2882 216.064 72.8265 221.644C71.3541 227.214 69.7644 232.933 68.292 238.523ZM70.6926 237.456C72.421 231.204 74.0214 224.824 75.8779 218.582C76.9448 214.731 79.6015 217.921 81.1912 218.049C83.8479 218.444 81.9914 220.172 81.458 221.111C78.6626 226.03 75.8779 230.82 72.9438 235.739C72.421 236.528 72.2823 237.584 70.6926 237.456ZM70.8207 243.965C75.3444 235.984 79.8576 227.875 84.3814 219.767C88.4997 223.095 91.5618 226.808 95.1467 230.532C86.8993 235.184 79.3241 240.241 71.0874 244.231L70.8207 243.965ZM76.8061 244.231C82.5249 239.58 89.0332 236.251 95.4241 232.933C98.881 231.332 99.6812 235.995 103.138 237.851C93.4289 240.113 85.4483 243.175 76.8061 244.231ZM106.189 237.051C104.856 236.923 99.4038 232.26 99.4038 231.332C99.3184 231.065 99.3611 230.767 99.5318 230.532C100.065 229.465 108.441 225.475 109.636 225.613C114.021 226.147 113.754 230.532 115.621 233.189C116.155 233.989 115.493 234.65 114.821 234.789C111.908 235.589 108.985 236.389 106.189 237.051ZM115.493 227.214C120.017 228.409 123.869 229.476 128.126 230.543C119.483 234.928 117.894 234.533 115.493 227.214ZM108.846 241.18C106.99 239.58 107.118 238.918 109.646 238.257C116.955 236.261 116.955 236.133 120.145 242.908C122.674 248.36 125.33 253.812 127.859 259.264C121.479 253.012 115.098 247.027 108.846 241.18ZM131.71 251.551V260.587C131.444 260.587 131.316 260.716 131.049 260.716C127.464 253.268 123.869 245.693 120.145 238.246C119.217 236.251 119.483 235.589 121.745 234.917C131.849 231.994 131.849 231.855 131.849 242.492C131.849 245.565 131.71 248.488 131.71 251.551ZM132.244 220.3C132.244 229.742 132.244 229.742 123.207 227.342C120.55 226.68 117.894 225.88 115.226 225.219C114.159 224.952 113.37 224.418 113.231 223.362C113.103 222.295 114.031 222.029 114.693 221.634C119.611 218.71 124.669 215.915 129.587 212.864C132.116 211.263 132.383 212.469 132.244 214.592V220.3ZM130.174 206.878C121.532 201.693 112.89 196.636 104.12 191.589C102.519 190.661 101.996 189.861 103.053 188.132C107.31 181.09 111.3 174.038 115.685 166.591C126.322 177.228 136.501 187.46 146.925 197.702C148.12 198.897 148.259 199.431 146.658 200.359C142.668 202.482 138.816 204.883 134.826 207.145C133.364 207.988 131.529 207.892 130.174 206.878ZM156.975 241.041C149.795 248.617 142.486 256.064 135.306 263.639L134.111 262.839C134.111 253.396 134.111 243.965 133.983 234.384C133.983 232.527 134.911 232.388 136.373 232.783C143.159 234.64 149.934 236.635 156.719 238.363C159.504 239.046 157.904 240.113 156.975 241.041ZM158.704 236.795C152.185 235.066 145.538 233.21 139.03 231.482C139.136 231.183 139.179 230.863 139.158 230.553C144.61 229.092 150.243 227.363 155.78 226.168C160.037 225.24 162.566 228.964 166.023 230.553C166.194 230.884 166.279 231.247 166.29 231.62C166.012 233.338 160.432 237.19 158.704 236.795ZM187.554 244.498C179.712 242.375 171.87 240.38 164.017 238.246C166.813 232.26 168.402 231.727 173.726 234.917L188.087 243.293C187.852 243.677 187.682 244.082 187.554 244.498ZM188.674 241.447C182.688 237.862 176.842 234.266 170.195 230.415C171.336 229.486 172.137 229.081 172.585 228.419C174.313 226.03 175.647 226.296 177.642 228.419C180.565 231.748 183.894 234.672 186.946 237.862C187.874 238.779 189.335 239.452 188.674 241.447ZM191.011 239.313C186.487 234.928 182.24 230.543 178.111 226.147C175.583 223.224 179.178 222.562 180.235 221.228C181.696 218.966 182.358 221.356 182.891 222.295L190.466 235.461C191.437 236.517 191.651 238.043 191.011 239.313ZM197.924 242.908C197.658 243.036 197.529 243.036 197.263 243.175C193.006 235.867 188.802 228.419 184.502 220.972C183.574 219.372 183.702 218.582 185.697 218.177C189.688 217.249 193.678 216.054 197.924 214.987V242.908ZM187.82 215.115C191.149 211.925 194.734 208.468 197.924 205.278C198.33 214.059 197.391 214.987 187.82 215.115ZM196.857 201.426C192.206 206.483 187.415 211.669 182.23 217.249C177.845 209.535 174.249 203.026 170.003 195.846C179.306 196.646 187.82 197.18 196.196 197.969C199.119 198.236 198.063 200.092 196.857 201.426ZM198.116 100.644C197.988 110.214 197.988 119.656 197.988 129.227C198.116 132.022 197.455 133.345 194.137 133.217C187.095 132.822 180.042 133.089 173.001 133.089C171.272 133.089 170.344 132.961 170.878 130.827C174.729 116.744 178.581 102.66 182.432 88.31C187.202 90.956 191.576 93.4739 195.865 96.2586C197.433 97.1228 198.33 98.8619 198.116 100.644ZM198.458 74.8559C197.658 81.1082 198.33 87.4884 198.33 94.6689C193.144 91.7455 188.813 89.0888 184.374 86.6882C184.374 86.6882 184.364 86.6882 184.364 86.6776C183.446 86.2721 183.041 85.2052 183.446 84.2876C185.708 76.307 187.831 68.1983 190.093 59.6948C195.129 63.8132 199.386 67.5368 198.458 74.8559ZM197.658 65.1469C195.449 62.4902 193.806 60.3563 191.939 58.3612C191.053 57.4863 190.84 56.142 191.405 55.0324C192.067 53.432 193.262 54.2322 194.201 54.3709C199.119 55.3098 199.525 56.5047 197.658 65.1469ZM196.783 52.9198C195.321 52.2583 191.864 53.5813 192.792 49.8577C194.521 43.2107 196.377 36.6918 198.106 30.0448H198.714C198.714 36.9585 198.714 43.7442 198.639 50.6473C198.639 51.8529 199.173 54.1148 196.783 52.9198ZM256.157 126.976C256.029 127.104 256.029 127.37 255.891 127.509C249.777 124.052 243.525 120.99 237.806 117.138C234.883 115.015 238.468 111.953 238.468 109.425C244.464 115.271 250.311 121.118 256.157 126.976ZM200.453 140.131C202.309 136.279 204.977 133.484 210.29 135.212C215.401 135.212 220.789 135.34 226.379 135.212C228.503 135.212 228.908 136.012 228.503 138.008C227.702 141.731 226.507 144.26 221.984 145.049C215.603 146.244 209.223 148.24 202.843 150.107C200.581 150.768 199.386 150.373 199.781 147.845C200.186 145.316 199.119 142.659 200.453 140.131ZM200.186 70.4602C205.638 75.7735 210.557 80.436 215.614 85.3546C211.229 87.8832 206.972 90.2731 202.715 92.663C200.986 93.5913 200.186 93.4632 200.186 91.3294V70.4602ZM214.942 88.1499C216.542 87.2217 216.937 87.7552 217.332 89.3449C218.527 94.1354 219.988 98.9153 221.183 103.706C221.653 104.762 221.375 106 220.522 106.768C219.455 107.429 218.793 106.373 217.993 105.968C212.413 102.906 206.822 99.7155 200.837 96.2586C205.905 93.3352 210.429 90.8066 214.942 88.1499ZM228.556 80.5747C233.208 77.9181 237.86 75.3894 242.511 72.7328C242.778 72.6047 243.045 72.7328 244.24 72.7328H244.186C239.129 80.0412 234.477 86.8269 230.018 93.4739C229.089 94.9356 228.556 94.9356 227.222 93.7406C218.857 86.0161 218.719 86.1548 228.556 80.5747ZM223.317 112.476C225.174 118.728 226.774 124.97 228.374 131.222C229.036 133.345 227.446 133.078 226.251 133.078H205.115C210.429 125.503 215.091 118.718 219.476 111.804C221.194 109.425 222.656 110.353 223.317 112.476ZM226.379 154.887C226.251 151.824 227.574 149.168 228.236 146.511C228.503 145.316 229.569 144.911 230.764 144.783C232.365 144.655 232.365 145.978 232.621 146.906C234.221 151.43 233.421 152.497 226.379 154.887ZM200.186 154.097C202.448 149.979 209.49 150.768 214.408 149.178C218.132 147.983 221.856 147.183 226.113 146.116C225.184 149.573 224.384 152.369 223.723 155.292C223.403 156.647 222.464 157.778 221.194 158.354C218.132 159.954 215.209 161.683 212.157 163.411C208.306 165.673 204.315 167.796 200.058 170.197L200.186 154.097ZM222.389 160.072C220.533 167.114 218.804 173.366 217.076 179.618C216.542 181.474 215.347 180.418 214.547 179.885C210.29 177.495 206.172 174.966 201.253 172.043C208.434 167.924 214.942 164.201 222.389 160.072ZM224.256 161.139C224.79 159.016 231.703 153.692 233.56 153.83C233.923 153.905 234.243 154.086 234.488 154.364C236.483 156.626 236.216 162.344 234.093 164.468C230.37 168.191 226.646 171.915 222.922 175.5C222.122 176.161 221.461 177.228 219.86 176.833C221.322 171.381 222.784 166.196 224.256 161.139ZM235.075 148.112C234.947 146.65 233.08 144.388 235.47 143.588C241.572 141.731 247.665 139.875 254.29 139.597C248.444 142.788 242.725 146.106 236.931 149.296C235.608 150.107 235.203 149.04 235.075 148.112ZM235.15 141.326C231.821 142.126 232.76 138.669 232.226 137.069C231.426 134.807 233.56 135.212 234.755 135.212H256.157C256.189 135.415 256.285 135.596 256.424 135.746C249.382 137.602 242.33 139.597 235.15 141.326ZM230.231 130.027C228.631 123.913 227.308 118.856 225.707 113.009C234.755 117.661 234.755 117.661 230.231 130.027ZM233.154 114.738C230.551 113.479 228.065 112.017 225.707 110.353C225.6 110.278 225.504 110.203 225.408 110.118C223.723 108.699 223.499 106.192 224.918 104.495C225.718 103.3 226.518 102.233 227.18 101.038C228.375 98.5098 229.569 99.0433 231.031 100.772C232.888 103.034 235.416 104.762 236.878 107.024C236.216 109.553 235.683 111.676 235.021 114.066C234.755 115.005 234.093 115.271 233.154 114.738ZM237.678 103.834C237.283 103.706 236.878 103.706 236.75 103.567C229.708 97.1868 229.708 97.1868 235.021 89.4729C237.945 85.3546 240.74 81.2255 243.664 77.1072C244.058 77.2352 244.464 77.5019 244.859 77.6406C242.469 86.2828 240.207 95.0636 237.678 103.834ZM245.926 68.337C236.216 73.789 227.308 78.8356 218.143 84.0209C215.881 75.7735 213.758 67.6648 211.496 59.0227C223.051 62.0848 233.955 65.1469 245.926 68.337ZM210.023 61.9567C211.624 67.9422 213.213 74.0558 214.814 80.1693C214.611 80.3293 214.387 80.468 214.152 80.564C209.895 76.307 205.638 72.0499 201.392 67.9316C200.464 66.8646 199.93 58.2225 200.73 57.1662C200.933 56.8461 201.285 56.6434 201.659 56.6328C204.71 55.9713 209.223 58.8946 210.023 61.9567ZM200.368 48.7908C200.901 42.1438 200.496 35.4968 200.496 28.8498H201.242C203.504 37.0972 205.628 45.3339 207.815 53.5813C208.348 55.5765 207.687 55.8432 205.692 55.4378C201.84 54.7763 199.973 53.3146 200.368 48.7908ZM199.791 130.027V119.656L200.058 101.444C200.058 99.182 200.592 98.3818 202.853 99.7155C207.377 102.511 212.029 105.167 216.809 107.696C218.665 108.624 218.665 109.553 217.609 111.153C212.957 117.8 208.305 124.447 203.782 131.233C202.982 132.566 201.925 133.356 200.453 132.833C198.991 132.289 199.791 130.955 199.791 130.027ZM199.653 193.317V173.504C204.763 176.428 208.956 179.085 213.352 181.613C214.952 182.541 215.081 183.342 213.747 184.675C210.29 188.004 206.833 191.461 203.504 194.918C202.811 195.814 201.701 196.273 200.581 196.113C198.991 195.579 199.653 194.246 199.653 193.317ZM214.675 186.532C212.285 198.897 213.075 197.436 205.638 196.102C208.167 192.517 211.357 189.989 214.675 186.532ZM200.848 239.046C200.581 239.046 200.186 238.918 199.919 238.918C199.919 232.132 200.047 225.219 199.791 218.444C199.663 215.382 200.453 213.792 203.643 213.525C205.126 213.269 206.598 212.917 208.028 212.458C205.499 221.634 203.248 230.404 200.848 239.046ZM205.905 210.868C198.863 212.597 200.058 212.864 199.919 206.345C199.919 200.092 200.986 198.236 205.105 198.631C207.228 198.759 210.29 197.436 211.357 200.092C212.413 202.749 208.295 210.196 205.905 210.868ZM240.335 201.821C230.764 204.349 221.322 206.878 211.218 209.663C212.018 206.473 212.68 203.677 213.341 201.021C213.875 198.897 215.603 199.42 217.065 199.559C224.779 200.092 232.354 200.626 240.068 201.287C240.207 201.426 240.207 201.693 240.335 201.821ZM217.598 197.564C215.475 197.436 214.536 196.902 215.209 194.235C217.865 184.131 217.737 184.131 226.774 189.444L242.725 199.42C233.955 198.769 225.718 198.097 217.598 197.564ZM246.459 198.769C236.889 193.051 228.108 187.865 219.732 182.947C225.718 176.961 231.437 171.115 237.55 165.268C240.335 176.033 243.258 186.937 246.459 198.769ZM238.34 159.144C238.18 158.984 238.052 158.802 237.945 158.61C235.95 152.091 235.822 152.091 241.935 148.773C246.587 146.244 251.378 143.716 256.029 141.198L256.563 141.593C250.439 147.45 244.464 153.297 238.34 159.144ZM259.753 133.089H234.755C232.898 133.089 231.831 132.961 232.632 130.56C233.699 127.232 234.488 123.913 235.288 120.585C235.683 118.984 236.216 118.461 237.817 119.39C245.264 123.775 252.711 127.904 260.148 132.15C260.041 132.47 259.902 132.79 259.753 133.089Z" fill="#15BFFD" fill-opacity="0.3"/>
</svg>
