<svg width="40" height="40" viewBox="0 0 40 40" fill="none" xmlns="http://www.w3.org/2000/svg">
<circle cx="20" cy="20" r="20" fill="black"/>
<path d="M27.5605 25.724H13.4395C13.035 25.724 12.707 25.396 12.707 24.9916V19.5C12.707 15.2029 16.2029 11.707 20.5 11.707C24.7971 11.707 28.293 15.2029 28.293 19.5V24.9916C28.293 25.396 27.965 25.724 27.5605 25.724Z" fill="#F0142D"/>
<path d="M28.293 24.9916V19.5C28.293 15.2029 24.7971 11.707 20.5 11.707V25.724H27.5605C27.965 25.724 28.293 25.396 28.293 24.9916Z" fill="#B40000"/>
<path d="M22.8535 25.724H18.1465C17.742 25.724 17.4141 25.396 17.4141 24.9916V19.5C17.4141 17.7766 18.8163 16.4141 20.5 16.4141C22.1772 16.4141 23.5859 17.7698 23.5859 19.5V24.9916C23.5859 25.396 23.258 25.724 22.8535 25.724Z" fill="#FF6400"/>
<path d="M10.3015 20.2324H8.73242C8.32793 20.2324 8 19.9045 8 19.5C8 19.0955 8.32793 18.7676 8.73242 18.7676H10.3015C10.706 18.7676 11.0339 19.0955 11.0339 19.5C11.0339 19.9045 10.706 20.2324 10.3015 20.2324Z" fill="#FF6400"/>
<path d="M32.2675 20.2324H30.6985C30.294 20.2324 29.9661 19.9045 29.9661 19.5C29.9661 19.0955 30.294 18.7676 30.6985 18.7676H32.2675C32.672 18.7676 33 19.0955 33 19.5C33 19.9045 32.672 20.2324 32.2675 20.2324Z" fill="#FF6400"/>
<path d="M20.5 10.0338C20.0955 10.0338 19.7676 9.70591 19.7676 9.30142V7.73242C19.7676 7.32793 20.0955 7 20.5 7C20.9045 7 21.2324 7.32793 21.2324 7.73242V9.30142C21.2324 9.70591 20.9045 10.0338 20.5 10.0338Z" fill="#FF6400"/>
<path d="M11.2998 15.0347L9.94266 14.2502C9.59246 14.0478 9.47264 13.5998 9.67513 13.2496C9.87757 12.8993 10.3255 12.7796 10.6758 12.9821L12.0329 13.7666C12.3831 13.969 12.503 14.417 12.3005 14.7672C12.1242 15.0722 11.6916 15.2613 11.2998 15.0347Z" fill="#FF6400"/>
<path d="M28.6995 14.7672C28.4971 14.417 28.6169 13.969 28.967 13.7665L30.3242 12.982C30.6744 12.7796 31.1225 12.8994 31.3249 13.2496C31.5273 13.5997 31.4075 14.0477 31.0573 14.2502L29.7001 15.0347C29.2994 15.2663 28.8713 15.0644 28.6995 14.7672Z" fill="#FF6400"/>
<path d="M14.7661 11.0338L13.9816 9.67507C13.7793 9.32478 13.8993 8.87683 14.2496 8.67458C14.6 8.47233 15.0479 8.59231 15.2501 8.94265L16.0346 10.3014C16.2369 10.6517 16.1169 11.0996 15.7665 11.3019C15.3664 11.5329 14.9381 11.3319 14.7661 11.0338Z" fill="#FF6400"/>
<path d="M25.2333 11.3019C24.8829 11.0997 24.7629 10.6517 24.9652 10.3014L25.7497 8.94269C25.952 8.59235 26.3998 8.47228 26.7502 8.67462C27.1005 8.87687 27.2205 9.32482 27.0182 9.67511L26.2338 11.0339C26.0572 11.3396 25.6245 11.5278 25.2333 11.3019Z" fill="#FF6400"/>
<path d="M23.5859 24.9916V19.5C23.5859 17.7697 22.1772 16.4141 20.5 16.4141V25.724H22.8535C23.258 25.724 23.5859 25.396 23.5859 24.9916Z" fill="#F0142D"/>
<path d="M29.9141 28.862H11.0859C10.6814 28.862 10.3535 28.534 10.3535 28.1295C10.3535 27.725 10.6814 27.3971 11.0859 27.3971C11.5472 27.3971 11.9225 27.0218 11.9225 26.5605V24.9915C11.9225 24.5871 12.2504 24.2591 12.6549 24.2591H28.3451C28.7496 24.2591 29.0775 24.5871 29.0775 24.9915V26.5605C29.0775 27.0218 29.4528 27.3971 29.9141 27.3971C30.3186 27.3971 30.6465 27.725 30.6465 28.1295C30.6465 28.534 30.3186 28.862 29.9141 28.862Z" fill="#3C3C37"/>
<path d="M30.6465 28.1295C30.6465 27.725 30.3186 27.3971 29.9141 27.3971C29.4528 27.3971 29.0775 27.0218 29.0775 26.5605V24.9915C29.0775 24.5871 28.7496 24.2591 28.3451 24.2591H20.5V28.862H29.9141C30.3186 28.862 30.6465 28.5341 30.6465 28.1295Z" fill="#141E14"/>
<path d="M30.6986 32H10.3015C9.89702 32 9.56909 31.6721 9.56909 31.2676V28.1295C9.56909 27.7251 9.89702 27.3971 10.3015 27.3971H30.6986C31.1031 27.3971 31.431 27.7251 31.431 28.1295V31.2676C31.431 31.6721 31.1031 32 30.6986 32Z" fill="#64645A"/>
<path d="M31.431 31.2676V28.1295C31.431 27.7251 31.103 27.3971 30.6985 27.3971H20.5V32H30.6985C31.103 32 31.431 31.6721 31.431 31.2676Z" fill="#3C3C37"/>
</svg>
