<svg width="107" height="119" viewBox="0 0 107 119" fill="none" xmlns="http://www.w3.org/2000/svg">
<path d="M92.5335 108.029C91.5625 108.029 90.7755 107.242 90.7755 106.271V100.895C90.7755 99.9241 91.5627 99.1371 92.5335 99.1371C93.5044 99.1371 94.2917 99.9244 94.2917 100.895V106.271C94.2917 107.242 93.5046 108.029 92.5335 108.029Z" fill="#497090"/>
<path d="M95.7213 99.8984L93.7216 101.995C93.075 102.673 91.9935 102.673 91.3469 101.995L89.3471 99.8984C89.0558 99.5931 88.8935 99.1875 88.8935 98.7657V89.9215H96.1752V98.7657C96.1752 99.1875 96.0126 99.5931 95.7213 99.8984Z" fill="#5680A6"/>
<path d="M96.3342 92.2658H88.7336C87.8274 92.2658 87.0927 91.5311 87.0927 90.6248V66.78L89.5361 64.4357H95.5137L97.9752 66.78V90.6248C97.9752 91.5311 97.2407 92.2658 96.3342 92.2658Z" fill="#99E6FC"/>
<path d="M91.782 64.4354V92.2656H88.7346C87.8284 92.2656 87.0937 91.5309 87.0937 90.6247V66.7796L89.3019 64.4354H91.782Z" fill="#62DBFB"/>
<path d="M96.1635 25.4122H88.9042V17.423C88.9042 16.5315 89.6269 15.8088 90.5184 15.8088H94.5491C95.4406 15.8088 96.1633 16.5315 96.1633 17.423V25.4122H96.1635Z" fill="#0EBE7F"/>
<path d="M97.9754 66.7801H87.0927V24.6823C87.0927 23.7908 87.8154 23.0681 88.7069 23.0681H96.3612C97.2527 23.0681 97.9754 23.7908 97.9754 24.6823V66.7801Z" fill="#5680A6"/>
<path d="M91.782 23.0675V66.7797H87.0937V24.7082C87.0937 23.802 87.8284 23.0673 88.7346 23.0673H91.782V23.0675Z" fill="#497090"/>
<path d="M105.242 53.9751C104.271 53.9751 103.484 53.1878 103.484 52.217V32.1303H87.0929C86.1219 32.1303 85.3348 31.3431 85.3348 30.3722C85.3348 29.4014 86.1221 28.6141 87.0929 28.6141H105.242C106.213 28.6141 107 29.4014 107 30.3722V52.217C107 53.1881 106.213 53.9751 105.242 53.9751Z" fill="#99E6FC"/>
<path d="M81.17 8.99244V116.453C81.17 117.345 80.4473 118.067 79.5558 118.067H1.6142C0.722702 118.067 0 117.345 0 116.453V8.99244C0 8.10094 0.722702 7.37823 1.6142 7.37823H14.9973L19.7498 9.68424H61.4204L66.1729 7.37823H79.556C80.4473 7.37823 81.17 8.10094 81.17 8.99244Z" fill="#FED2A4"/>
<path d="M66.1734 7.37823V14.7591H14.9978V7.37823H19.7503L22.0224 9.68424H58.9185L61.4209 7.37823H66.1734Z" fill="#FFBD86"/>
<path d="M73.791 16.3734V109.075C73.791 109.966 73.0683 110.689 72.1768 110.689H8.99244C8.10094 110.689 7.37823 109.966 7.37823 109.075V16.3734C7.37823 15.4819 8.10094 14.7592 8.99244 14.7592H72.1768C73.0683 14.7592 73.791 15.4819 73.791 16.3734Z" fill="#F2FBFF"/>
<path d="M66.1734 14.7592V21.5736C66.1734 22.4651 65.4507 23.1878 64.5592 23.1878H16.612C15.7205 23.1878 14.9978 22.4651 14.9978 21.5736V14.7592H66.1734Z" fill="#DFF6FD"/>
<path d="M4.75129 7.37823V118.067H1.6142C0.722702 118.067 0 117.345 0 116.453V8.99244C0 8.10094 0.722702 7.37823 1.6142 7.37823H4.75129Z" fill="#FFBD86"/>
<path d="M12.1295 14.7592V110.689H8.99244C8.10094 110.689 7.37823 109.966 7.37823 109.075V16.3734C7.37823 15.4819 8.10094 14.7592 8.99244 14.7592H12.1295Z" fill="#DFF6FD"/>
<path d="M47.9642 7.37922C47.9642 3.30381 44.6604 0 40.585 0C36.5096 0 33.2058 3.30381 33.2058 7.37922H19.7496V16.8223C19.7496 17.7138 20.4723 18.4365 21.3638 18.4365H59.806C60.6975 18.4365 61.4202 17.7138 61.4202 16.8223V7.60982V7.37922H47.9642Z" fill="#62DBFB"/>
<path d="M41.9146 6.00733C42.649 6.74179 42.649 7.93284 41.9146 8.66731C41.1801 9.40177 39.9891 9.40177 39.2546 8.66731C38.5202 7.93284 38.5202 6.74179 39.2546 6.00733C39.9893 5.27287 41.1801 5.27287 41.9146 6.00733Z" fill="#5680A6"/>
<path d="M60.9051 75.0818H37.0986C36.1434 75.0818 35.369 74.3075 35.369 73.3523C35.369 72.3972 36.1434 71.6228 37.0986 71.6228H60.9048C61.86 71.6228 62.6343 72.3972 62.6343 73.3523C62.6343 74.3075 61.8602 75.0818 60.9051 75.0818Z" fill="#5680A6"/>
<path d="M60.9051 82.245H37.0986C36.1434 82.245 35.369 81.4707 35.369 80.5155C35.369 79.5604 36.1434 78.786 37.0986 78.786H60.9048C61.86 78.786 62.6343 79.5604 62.6343 80.5155C62.6343 81.4707 61.8602 82.245 60.9051 82.245Z" fill="#5680A6"/>
<path d="M60.9051 89.4079H37.0986C36.1434 89.4079 35.369 88.6336 35.369 87.6784C35.369 86.7233 36.1434 85.9489 37.0986 85.9489H60.9048C61.86 85.9489 62.6343 86.7233 62.6343 87.6784C62.6343 88.6336 61.8602 89.4079 60.9051 89.4079Z" fill="#5680A6"/>
<path d="M29.9343 75.0819H19.1897C18.2345 75.0819 17.4602 74.3075 17.4602 73.3524C17.4602 72.3972 18.2345 71.6229 19.1897 71.6229H29.9343C30.8894 71.6229 31.6638 72.3972 31.6638 73.3524C31.6638 74.3075 30.8894 75.0819 29.9343 75.0819Z" fill="#5680A6"/>
<path d="M29.9355 82.245H19.1909C18.2357 82.245 17.4614 81.4707 17.4614 80.5155C17.4614 79.5604 18.2357 78.786 19.1909 78.786H29.9355C30.8906 78.786 31.665 79.5604 31.665 80.5155C31.665 81.4707 30.8906 82.245 29.9355 82.245Z" fill="#5680A6"/>
<path d="M29.9355 89.4079H19.1909C18.2357 89.4079 17.4614 88.6336 17.4614 87.6784C17.4614 86.7233 18.2357 85.9489 19.1909 85.9489H29.9355C30.8906 85.9489 31.665 86.7233 31.665 87.6784C31.665 88.6336 30.8906 89.4079 29.9355 89.4079Z" fill="#5680A6"/>
<path d="M60.5288 100.037H47.0456C46.0905 100.037 45.3161 99.2627 45.3161 98.3075C45.3161 97.3524 46.0905 96.578 47.0456 96.578H60.5288C61.484 96.578 62.2584 97.3524 62.2584 98.3075C62.2584 99.2627 61.484 100.037 60.5288 100.037Z" fill="#5680A6"/>
<path d="M40.6776 62.6007C50.5656 62.6007 58.5814 54.5849 58.5814 44.6969C58.5814 34.8088 50.5656 26.793 40.6776 26.793C30.7896 26.793 22.7737 34.8088 22.7737 44.6969C22.7737 54.5849 30.7896 62.6007 40.6776 62.6007Z" fill="#0EBE7F"/>
<path d="M49.8086 41.1188H45.8741C44.9826 41.1188 44.2599 40.3961 44.2599 39.5046V35.5701C44.2599 34.6786 43.5372 33.9559 42.6457 33.9559H38.7112C37.8197 33.9559 37.097 34.6786 37.097 35.5701V39.5046C37.097 40.3961 36.3743 41.1188 35.4828 41.1188H31.5483C30.6568 41.1188 29.9341 41.8415 29.9341 42.733V46.6676C29.9341 47.5591 30.6568 48.2818 31.5483 48.2818H35.4828C36.3743 48.2818 37.097 49.0045 37.097 49.896V53.8305C37.097 54.722 37.8197 55.4447 38.7112 55.4447H42.6457C43.5372 55.4447 44.2599 54.722 44.2599 53.8305V49.896C44.2599 49.0045 44.9826 48.2818 45.8741 48.2818H49.8086C50.7001 48.2818 51.4228 47.5591 51.4228 46.6676V42.733C51.4228 41.8415 50.7001 41.1188 49.8086 41.1188Z" fill="#F2FBFF"/>
</svg>
