<svg width="40" height="40" viewBox="0 0 40 40" fill="none" xmlns="http://www.w3.org/2000/svg">
<circle cx="20.0002" cy="20.0001" r="14" fill="white"/>
<path d="M20 0C22.6264 0 25.2272 0.517315 27.6537 1.52241C30.0802 2.5275 32.285 4.00069 34.1421 5.85786C35.9993 7.71504 37.4725 9.91982 38.4776 12.3463C39.4827 14.7728 40 17.3736 40 20C40 25.3043 37.8929 30.3914 34.1421 34.1421C30.3914 37.8929 25.3043 40 20 40C17.3736 40 14.7728 39.4827 12.3463 38.4776C9.91982 37.4725 7.71504 35.9993 5.85786 34.1421C2.10714 30.3914 0 25.3043 0 20C0 14.6957 2.10714 9.60859 5.85786 5.85786C9.60859 2.10714 14.6957 0 20 0ZM30 28V26L28 24V18.78C28 16.6 27.46 14.68 26.42 13.06C25.4 11.44 23.92 10.42 22 10V9C22 8.46957 21.7893 7.96086 21.4142 7.58579C21.0391 7.21071 20.5304 7 20 7C19.4696 7 18.9609 7.21071 18.5858 7.58579C18.2107 7.96086 18 8.46957 18 9V10C16.08 10.42 14.6 11.44 13.58 13.06C12.54 14.68 12 16.6 12 18.78V24L10 26V28H30ZM23 30H17C17 30.7956 17.3161 31.5587 17.8787 32.1213C18.4413 32.6839 19.2044 33 20 33C20.7956 33 21.5587 32.6839 22.1213 32.1213C22.6839 31.5587 23 30.7956 23 30Z" fill="black"/>
</svg>
