<svg width="28" height="28" viewBox="0 0 28 28" fill="none" xmlns="http://www.w3.org/2000/svg">
<path d="M13.3 27.35C12.9667 27.35 12.7 27.25 12.5 27.05C12.3 26.85 12.2 26.5833 12.2 26.25V15.3H1.35C1.01667 15.3 0.75 15.2 0.55 15C0.35 14.8 0.25 14.5333 0.25 14.2V13.5C0.25 13.1667 0.35 12.9 0.55 12.7C0.75 12.5 1.01667 12.4 1.35 12.4H12.2V1.75C12.2 1.41667 12.3 1.15 12.5 0.949998C12.7 0.749998 12.9667 0.649998 13.3 0.649998H14.05C14.3833 0.649998 14.65 0.749998 14.85 0.949998C15.05 1.15 15.15 1.41667 15.15 1.75V12.4H26.05C26.3833 12.4 26.65 12.5 26.85 12.7C27.05 12.9 27.15 13.1667 27.15 13.5V14.2C27.15 14.5333 27.05 14.8 26.85 15C26.65 15.2 26.3833 15.3 26.05 15.3H15.15V26.25C15.15 26.5833 15.05 26.85 14.85 27.05C14.65 27.25 14.3833 27.35 14.05 27.35H13.3Z" fill="#0EBE7F"/>
</svg>
