<svg width="30" height="29" viewBox="0 0 30 29" fill="none" xmlns="http://www.w3.org/2000/svg">
<path d="M28.6145 26.5552L23.2341 21.2183C25.3226 18.6143 26.334 15.309 26.0604 11.9822C25.7867 8.65532 24.2488 5.55976 21.7629 3.33199C19.277 1.10422 16.032 -0.086419 12.6951 0.0048887C9.35831 0.0961964 6.18327 1.46251 3.82289 3.82289C1.46251 6.18327 0.0961964 9.35831 0.0048887 12.6951C-0.086419 16.032 1.10422 19.277 3.33199 21.7629C5.55976 24.2488 8.65532 25.7867 11.9822 26.0604C15.309 26.334 18.6143 25.3226 21.2183 23.2341L26.5552 28.571C26.69 28.707 26.8504 28.8148 27.0271 28.8885C27.2039 28.9621 27.3934 29 27.5849 29C27.7763 29 27.9659 28.9621 28.1426 28.8885C28.3193 28.8148 28.4797 28.707 28.6145 28.571C28.8759 28.3006 29.022 27.9392 29.022 27.5631C29.022 27.187 28.8759 26.8256 28.6145 26.5552ZM13.0825 23.2341C11.0747 23.2341 9.11193 22.6388 7.4425 21.5233C5.77306 20.4078 4.4719 18.8223 3.70354 16.9673C2.93518 15.1124 2.73415 13.0712 3.12585 11.102C3.51756 9.13274 4.48441 7.32388 5.90415 5.90415C7.32388 4.48441 9.13274 3.51756 11.102 3.12585C13.0712 2.73415 15.1124 2.93518 16.9673 3.70354C18.8223 4.4719 20.4078 5.77306 21.5233 7.4425C22.6388 9.11193 23.2341 11.0747 23.2341 13.0825C23.2341 15.7749 22.1646 18.357 20.2608 20.2608C18.357 22.1646 15.7749 23.2341 13.0825 23.2341Z" fill="white"/>
</svg>
